<?xml version="1.0" encoding="UTF-8"?>
<svg version="1.1" xmlns="http://www.w3.org/2000/svg" width="1024" height="1024">
<path d="M0 0 C337.92 0 675.84 0 1024 0 C1024 337.92 1024 675.84 1024 1024 C686.08 1024 348.16 1024 0 1024 C0 686.08 0 348.16 0 0 Z " fill="#FBFBFB" transform="translate(0,0)"/>
<path d="M0 0 C0.73943848 0.00563965 1.47887695 0.0112793 2.24072266 0.01708984 C13.99376647 0.27453019 25.05159928 3.44854169 34.0390625 11.31640625 C44.32313729 22.08194522 47.19578987 35.52800757 46.88671875 50.078125 C46.69551133 53.20300052 46.28635751 56.2284443 45.75 59.3125 C46.3275 58.961875 46.905 58.61125 47.5 58.25 C50.14786506 57.14672289 51.08185326 57.51093491 53.75 58.3125 C53.80444001 61.31274947 53.8438836 64.31199039 53.875 67.3125 C53.89175781 68.15167969 53.90851563 68.99085938 53.92578125 69.85546875 C53.97748127 76.52477154 53.58225989 82.53455758 49.8125 88.25 C47.75 90.3125 47.75 90.3125 44.75 91.3125 C44.57984375 92.43527344 44.4096875 93.55804688 44.234375 94.71484375 C42.96183097 102.73455958 41.7793829 110.15776241 37.75 117.3125 C37.2446875 118.25351562 36.739375 119.19453125 36.21875 120.1640625 C30.37468341 130.65681842 24.32409757 139.29113888 13.75 145.3125 C19.65322304 146.06610294 22.79457013 144.61564139 27.55859375 141.1171875 C39.62798391 131.17768972 45.22487881 116.15511553 48.75 101.3125 C72.65398748 103.26384592 92.69841826 113.88896915 109.75 130.3125 C110.32621094 131.03953125 110.90242188 131.7665625 111.49609375 132.515625 C114.79106146 135.14246234 118.19830337 135.02551184 122.25 135.25 C135.60413005 136.40523398 144.34721428 140.65515494 153.75 150.3125 C154.46027344 151.00214844 155.17054688 151.69179688 155.90234375 152.40234375 C166.35212969 163.17304442 171.01640695 176.285446 170.9140625 191.07421875 C170.76680956 193.98071131 170.34277479 196.64640261 169.8125 199.5 C169.20358906 204.85155533 171.48431246 207.3951082 174.703125 211.4765625 C184.04381966 224.41805929 187.79195747 239.56329801 187.8203125 255.27734375 C187.83031579 256.75195599 187.84074026 258.22656542 187.8515625 259.70117188 C187.86822581 261.97693867 187.87499543 264.25040931 187.84960938 266.52612305 C187.75167246 276.83287024 188.92720806 283.20842814 195.75 291.3125 C208.76776007 313.3770925 207.9832858 336.69734555 207.70898438 361.45141602 C206.59467628 391.12707548 206.59467628 391.12707548 216.54296875 418.33203125 C221.98213543 427.25648921 221.73716841 437.62079208 219.5625 447.5 C217.74359104 454.053172 215.28646328 459.76659075 209.625 463.8125 C206.75 465.3125 206.75 465.3125 203.75 465.3125 C203.42 463.0025 203.09 460.6925 202.75 458.3125 C202.29625 459.42625 201.8425 460.54 201.375 461.6875 C199.75 465.3125 199.75 465.3125 197.75 467.3125 C194.3125 467.75 194.3125 467.75 190.75 467.3125 C188.8125 464.8125 188.8125 464.8125 187.75 462.3125 C187.09 463.116875 186.43 463.92125 185.75 464.75 C182.50185179 467.52445993 180.82575169 468.21774608 176.6875 468.53125 C173.56499314 468.1787089 171.87310254 466.5019495 169.75 464.3125 C170.41 462.6625 171.07 461.0125 171.75 459.3125 C171.42 459.6425 171.09 459.9725 170.75 460.3125 C167.55122608 461.91188696 164.22855787 461.66998026 160.75 461.3125 C158.25 460.3125 158.25 460.3125 156.75 458.3125 C156.26002288 454.84005346 156.15022959 451.51204081 157.75 448.3125 C152.09030655 447.19157308 146.43924579 446.92872125 140.69140625 446.62890625 C139.58460007 446.56906555 138.47779388 446.50922485 137.33744812 446.4475708 C133.66271691 446.25151066 129.98768963 446.06226348 126.3125 445.875 C125.0378186 445.80969086 123.76313721 445.74438171 122.4498291 445.67709351 C66.12452422 442.81874102 9.82985967 441.44412566 -46.5625 442.75 C-47.4044693 442.76946686 -48.2464386 442.78893372 -49.11392212 442.80899048 C-58.11512214 443.0264399 -67.09182097 443.38841836 -76.0778656 443.95373535 C-83.25593936 444.39649729 -90.43589631 444.57453592 -97.625 444.75 C-109.90770226 445.07818932 -122.17033264 445.61479458 -134.4375 446.3125 C-135.19206482 446.35438446 -135.94662964 446.39626892 -136.72406006 446.43942261 C-138.87228913 446.55971002 -141.02015375 446.68505228 -143.16796875 446.8125 C-144.39281982 446.8846875 -145.6176709 446.956875 -146.87963867 447.03125 C-150.04954275 447.29577224 -153.1226672 447.73928005 -156.25 448.3125 C-155.92 448.9725 -155.59 449.6325 -155.25 450.3125 C-154.66742523 455.47244798 -154.66742523 455.47244798 -155.25 458.3125 C-157.8125 460.875 -157.8125 460.875 -161.25 462.3125 C-164.98091969 462.24926407 -167.25218584 462.11718884 -170.1875 459.75 C-170.7134375 459.0384375 -170.7134375 459.0384375 -171.25 458.3125 C-170.92 458.910625 -170.59 459.50875 -170.25 460.125 C-169.25 462.3125 -169.25 462.3125 -169.25 465.3125 C-172.19811996 467.81393512 -173.86254808 468.3125 -177.75 468.3125 C-181.84023974 467.14386008 -183.53432376 465.52193556 -186.25 462.3125 C-186.78625 463.1375 -187.3225 463.9625 -187.875 464.8125 C-190.25 467.3125 -190.25 467.3125 -193.25 467.9375 C-196.25 467.3125 -196.25 467.3125 -198.5625 464.9375 C-200.25 462.3125 -200.25 462.3125 -201.25 460.3125 C-201.58 461.9625 -201.91 463.6125 -202.25 465.3125 C-206.00955091 465.05020575 -207.91106463 464.58687625 -210.875 462.1875 C-218.66388706 452.75884724 -220.13667152 443.2964197 -219.25 431.3125 C-218.36348992 425.5986655 -217.26244004 420.40454764 -213.8125 415.6875 C-210.96316475 411.58996653 -210.05219651 407.2423507 -209 402.4375 C-208.83701416 401.69419434 -208.67402832 400.95088867 -208.50610352 400.18505859 C-206.53413982 390.56741108 -206.11671557 381.10170439 -206.22265625 371.3046875 C-206.23530864 368.9947932 -206.24766915 366.68489728 -206.25976562 364.375 C-206.28445781 360.78803279 -206.3123722 357.20115326 -206.34594727 353.61425781 C-206.56489234 328.58900787 -205.95420107 302.5509392 -188.63574219 282.43774414 C-186.87468985 279.73690541 -186.91724865 278.11365532 -186.9921875 274.91015625 C-187.00725342 273.86110107 -187.02231934 272.8120459 -187.0378418 271.73120117 C-187.08098511 270.06988159 -187.08098511 270.06988159 -187.125 268.375 C-187.1530067 266.1016004 -187.17778172 263.82815854 -187.19921875 261.5546875 C-187.21734619 259.92611816 -187.21734619 259.92611816 -187.23583984 258.26464844 C-187.32720371 239.21685773 -181.79402727 222.4790324 -170.37890625 207.20703125 C-167.92665488 203.09166131 -168.2504652 199.82717732 -169.25 195.3125 C-170.33929267 180.00883078 -166.76609322 166.6479404 -156.85351562 154.61767578 C-148.07589139 144.61219566 -137.89468348 136.81843497 -124.25 135.3125 C-123.31414062 135.33054687 -122.37828125 135.34859375 -121.4140625 135.3671875 C-116.5210885 135.37976584 -113.41603477 135.24036597 -109.49609375 132.12109375 C-107.66196261 130.20153001 -105.87126438 128.27002253 -104.09375 126.30078125 C-91.51451414 112.54554539 -71.20450974 104.90340195 -53.25 101.3125 C-51.25017862 101.28577092 -49.24976203 101.28164813 -47.25 101.3125 C-46.89808594 102.46105469 -46.54617188 103.60960937 -46.18359375 104.79296875 C-41.4262256 119.92306643 -35.7607798 136.02867288 -21.31640625 144.48046875 C-17.8538816 145.87464219 -14.93742198 145.6417341 -11.25 145.3125 C-11.806875 145.06757813 -12.36375 144.82265625 -12.9375 144.5703125 C-25.92060342 138.2103463 -34.19016936 123.37578122 -39.125 110.25 C-40.97406786 104.77626932 -42.00190827 99.48968419 -42.5 93.73828125 C-43.52985918 90.40733046 -45.24762827 89.90117829 -48.25 88.3125 C-52.25448721 81.73369959 -52.41079204 75.5995717 -52.375 68.125 C-52.37886719 67.30580078 -52.38273438 66.48660156 -52.38671875 65.64257812 C-52.37671604 59.56593208 -52.37671604 59.56593208 -51.25 57.3125 C-46.5 58.1875 -46.5 58.1875 -44.25 59.3125 C-44.27094727 58.58248779 -44.29189453 57.85247559 -44.31347656 57.1003418 C-44.39756927 53.73370617 -44.44895279 50.36729255 -44.5 47 C-44.53351563 45.85208984 -44.56703125 44.70417969 -44.6015625 43.52148438 C-44.74207248 31.12147848 -41.07380368 20.83925833 -32.6953125 11.59765625 C-23.96934065 3.39357267 -11.75324925 -0.095113 0 0 Z " fill="#010101" transform="translate(511.25,160.6875)"/>
<path d="M0 0 C27.90000386 21.15936293 41.23095547 63.72615239 46.4375 97.0625 C46.623125 98.691875 46.80875 100.32125 47 102 C39.74 103.32 32.48 104.64 25 106 C22.3125 99.25 22.3125 99.25 21.5012207 97.14550781 C19.74205478 92.8950588 17.89076243 90.44951021 14 88 C11.34872531 87.83022506 11.34872531 87.83022506 9 89 C4.3813635 93.6186365 3.74349358 99.64639262 3.6706543 105.87695312 C3.67621338 106.72193359 3.68177246 107.56691406 3.6875 108.4375 C3.69241455 109.31986328 3.6973291 110.20222656 3.70239258 111.11132812 C3.95476426 125.40980148 6.94011342 140.52414367 16 152 C19.46923881 154.31282587 20.92205575 154.42478586 25 154 C28.33246289 151.85770243 28.93392978 148.67490874 30 145 C30.27580863 142.71547193 30.4843786 140.42181617 30.625 138.125 C30.73714844 136.39636719 30.73714844 136.39636719 30.8515625 134.6328125 C30.92503906 133.32957031 30.92503906 133.32957031 31 132 C34.50417099 130.48640164 37.80506823 129.5334651 41.5625 128.875 C42.49191406 128.70742188 43.42132813 128.53984375 44.37890625 128.3671875 C47 128 47 128 51 128 C52.85010313 141.30732983 53.37259478 154.45520152 53.37060547 167.8840332 C53.37497148 171.16605867 53.41142087 174.44672674 53.44921875 177.72851562 C53.56538798 199.70672649 51.68000412 222.0486536 39.234375 240.78125 C32.75574127 247.2145786 24.72679594 249.14478524 16 250.8125 C14.97132813 251.02841797 13.94265625 251.24433594 12.8828125 251.46679688 C-3.3963871 254.72885023 -3.3963871 254.72885023 -10.90625 250.4375 C-43.34704464 228.16471562 -53.93506999 178.54126984 -60.99951172 142.48730469 C-66.9833854 110.16535142 -69.7089607 74.46038096 -63 42 C-62.86078125 41.25073242 -62.7215625 40.50146484 -62.578125 39.72949219 C-60.20865738 26.98811884 -56.67331801 14.16016047 -46.35009766 5.54833984 C-42.16775974 2.79284565 -37.64490736 1.74790997 -32.8125 0.625 C-31.84119141 0.37878906 -30.86988281 0.13257813 -29.86914062 -0.12109375 C-9.11212329 -5.32813168 -9.11212329 -5.32813168 0 0 Z " fill="#020202" transform="translate(158,502)"/>
<path d="M0 0 C1.05380859 0.26103516 2.10761719 0.52207031 3.19335938 0.79101562 C13.82990411 3.50544576 20.38977813 6.92070486 26.19140625 16.453125 C29.1320085 22.31589312 30.85941097 28.4902301 32.5 34.8125 C32.80381592 35.96443848 32.80381592 35.96443848 33.11376953 37.13964844 C36.70932812 51.87574094 37.19113432 66.84649744 37.125 81.9375 C37.12176727 83.27527496 37.12176727 83.27527496 37.11846924 84.64007568 C36.91862745 136.54002661 28.17614459 203.36930936 -8.8125 243 C-15.64211548 249.29043531 -21.09493657 253.50440849 -30.59008789 253.36791992 C-35.40433846 253.03351526 -40.04904488 251.98898898 -44.75 250.9375 C-46.2340332 250.63005859 -46.2340332 250.63005859 -47.74804688 250.31640625 C-57.14268595 248.25918601 -63.90017413 245.76128991 -69.59375 237.77734375 C-87.93190869 207.97783588 -84.55960941 161.44676084 -80.1875 128.1875 C-69.61781939 129.16168799 -69.61781939 129.16168799 -64.625 130.1875 C-63.79871094 130.3525 -62.97242188 130.5175 -62.12109375 130.6875 C-60.1875 131.1875 -60.1875 131.1875 -59.1875 132.1875 C-59.0278094 134.3935961 -58.91019243 136.60279022 -58.8125 138.8125 C-58.37942388 147.16381222 -58.37942388 147.16381222 -54.1875 154.1875 C-50.37114901 154.72001409 -48.54015166 154.39321347 -45.1875 152.4375 C-35.70371255 143.52472593 -32.42979948 128.102348 -31.83984375 115.5546875 C-31.79540899 113.59923384 -31.76535447 111.64339818 -31.75 109.6875 C-31.73984863 108.76791504 -31.72969727 107.84833008 -31.71923828 106.90087891 C-31.80345282 100.38552041 -32.49648301 94.14761869 -37.0625 89.125 C-39.17233254 88.03338971 -39.17233254 88.03338971 -41.625 88.125 C-45.23544653 89.62201442 -47.22375132 91.90783725 -49.1875 95.1875 C-50.39344127 98.13749178 -51.3475914 101.11466367 -52.1875 104.1875 C-59.96112658 102.88679477 -67.5602247 101.16668639 -75.1875 99.1875 C-70.22372817 68.22841604 -58.2535345 26.31965673 -34.1875 4.1875 C-22.44924479 -4.1096298 -13.47591123 -3.52523837 0 0 Z " fill="#020202" transform="translate(894.1875,501.8125)"/>
<path d="M0 0 C-2.355869 2.42869438 -4.66899537 4.61880691 -7.44140625 6.55859375 C-8.42560547 7.25106201 -8.42560547 7.25106201 -9.4296875 7.95751953 C-10.13351562 8.44591309 -10.83734375 8.93430664 -11.5625 9.4375 C-12.67818359 10.21649658 -12.67818359 10.21649658 -13.81640625 11.01123047 C-15.39971925 12.11460171 -16.98455873 13.21578523 -18.57080078 14.31494141 C-20.96763774 15.97755132 -23.35699326 17.65051812 -25.74609375 19.32421875 C-42.62917262 31.08837172 -59.95224278 42.27257865 -79.6875 48.5625 C-92.8768721 52.82683585 -103.32686415 59.74509824 -114.40283203 67.88012695 C-116 69 -116 69 -118 70 C-118.02187378 70.97271851 -118.02187378 70.97271851 -118.04418945 71.96508789 C-118.56623243 92.80069004 -119.48485773 115.92460286 -133 133 C-133.61230469 133.82242188 -134.22460938 134.64484375 -134.85546875 135.4921875 C-137.11652678 138.13626629 -139.4469082 139.94973857 -142.25 142 C-153.27432942 150.91328762 -158.23087018 164.0356581 -163 177 C-163.39759521 178.06782715 -163.39759521 178.06782715 -163.80322266 179.15722656 C-164.56474617 181.24174798 -165.28945723 183.33511006 -166 185.4375 C-166.4125 186.65308594 -166.825 187.86867188 -167.25 189.12109375 C-169.29520377 199.698632 -165.62626377 211.34498634 -163.72851562 221.76953125 C-160.16090119 242.2599115 -160.16090119 242.2599115 -164.12890625 248.171875 C-180.91699841 258.86143573 -217.45037354 253.13750437 -236.74752808 253.23016357 C-239.1996457 253.24334558 -241.65174264 253.26125936 -244.10379028 253.28399658 C-247.58885155 253.31395692 -251.07341774 253.3236602 -254.55859375 253.328125 C-255.60852509 253.34042145 -256.65845642 253.3527179 -257.74020386 253.36538696 C-263.62029898 253.34776802 -267.78479575 252.77059155 -273 250 C-272.96652475 248.60316918 -272.89668216 247.20719363 -272.8125 245.8125 C-272.77769531 245.03519531 -272.74289062 244.25789062 -272.70703125 243.45703125 C-271.46631712 239.14537829 -268.60678967 236.93448677 -264.79907227 234.7199707 C-262.17662672 233.35523125 -259.53097409 232.04820631 -256.875 230.75 C-248.67644725 226.5914257 -241.62238647 222.45887075 -235 216 C-234.27941406 215.31808594 -233.55882812 214.63617187 -232.81640625 213.93359375 C-227.62997254 208.60990093 -224.71642522 202.85417004 -221.73828125 196.13671875 C-219.87404244 192.77271029 -217.97860657 191.34692818 -215 189 C-208.6026696 175.19523441 -208.95976885 155.59460036 -208.0625 140.6875 C-206.50873362 115.77811999 -203.28918463 91.80404682 -190.875 69.875 C-185.49154904 60.36345018 -183.28004173 51.63780321 -182.25146484 40.77880859 C-181.59285858 34.15437043 -180.47659127 29.11340792 -176 24 C-172.6309845 21.75398967 -171.98015911 22.01646923 -168.22558594 22.68066406 C-163.39251635 23.37413214 -158.49907173 23.31177501 -153.625 23.375 C-152.53960937 23.41238281 -151.45421875 23.44976563 -150.3359375 23.48828125 C-143.80082663 23.55931506 -139.43741004 22.85200947 -133.95214844 19.20263672 C-130.80654026 17.26475954 -127.59822464 16.74446027 -124 16 C-123.01 15.67 -122.02 15.34 -121 15 C-119.86454438 12.70465742 -119.86454438 12.70465742 -119 10 C-118.33880551 8.33115487 -117.67292035 6.66415156 -117 5 C-99.69763785 3.18682047 -82.36660176 1.98904887 -65 1 C-63.94893066 0.93925293 -62.89786133 0.87850586 -61.81494141 0.81591797 C-41.22698358 -0.32501931 -20.61123677 -0.09986809 0 0 Z " fill="#010202" transform="translate(480,610)"/>
<path d="M0 0 C28.87096434 0.84249165 57.72935977 1.75877191 86.5625 3.5 C87.58721405 3.55966949 88.6119281 3.61933899 89.66769409 3.68081665 C92.57201459 3.85185587 95.47547877 4.03322651 98.37890625 4.21875 C99.2118924 4.2677092 100.04487854 4.3166684 100.90310669 4.36711121 C105.11032287 4.65143896 109.26417742 5.11544175 113.42553711 5.80273438 C114.23421738 5.93562866 115.04289764 6.06852295 115.87608337 6.20544434 C119.27742168 7.47788252 120.32571585 10.00111661 121.9375 13.1015625 C124.37494555 17.45670419 129.37368836 18.61556395 133.83984375 20.15625 C136 21 136 21 138.48046875 22.578125 C143.74300698 24.70416708 148.75801628 24.35474562 154.375 24.25 C155.47328125 24.24484375 156.5715625 24.2396875 157.703125 24.234375 C162.40433741 24.18927944 166.96617243 24.07468419 171.61328125 23.3359375 C172.73089844 23.22507812 173.84851563 23.11421875 175 23 C183.31814777 30.02421367 183.87377047 42.24692708 185.19726562 52.38476562 C186.32615028 59.76441772 188.92425616 64.81488585 193 71 C204.32068164 91.036904 206.84916405 113.6010253 208.63244629 136.1421814 C209.96967407 152.93138914 211.51142078 169.53641721 214.69628906 186.09448242 C215 188 215 188 215 191 C215.5775 191.226875 216.155 191.45375 216.75 191.6875 C221.51323492 194.4660537 223.69843359 199.13731837 225.9375 204 C228.14298097 208.51572229 230.13820235 211.70334347 234 215 C234.45375 215.50402344 234.9075 216.00804687 235.375 216.52734375 C243.50559679 225.49132671 254.78052374 231.32280302 265.75756836 236.08569336 C269.17377701 237.65999296 270.89134511 238.83090855 272.9453125 242.02734375 C274.0769074 245.21676494 274.23990251 247.64136491 274 251 C267.73036707 253.7512908 262.66978294 254.43147852 255.86328125 254.36328125 C254.39712624 254.36532059 254.39712624 254.36532059 252.90135193 254.36740112 C249.70476642 254.36592378 246.50895426 254.34066063 243.3125 254.3125 C241.08951846 254.30179093 238.86653669 254.29113074 236.64355469 254.28051758 C221.33750119 254.1771847 206.04383421 253.79864523 190.75 253.1875 C189.78720123 253.15274567 188.82440247 253.11799133 187.83242798 253.08218384 C185.11132138 252.98024728 182.39184674 252.85886342 179.671875 252.73046875 C178.87720322 252.70217987 178.08253143 252.67389099 177.26377869 252.64474487 C172.35033438 252.38087886 167.66827999 251.66827999 164 248 C162.97124747 234.87605696 164.64552341 222.51422175 167.22119141 209.6472168 C169.27430303 199.32531883 169.48049172 192.01740887 166 182 C165.68748291 181.08516846 165.37496582 180.17033691 165.05297852 179.2277832 C160.03779802 164.9839756 153.7481951 152.57851238 142.890625 141.97216797 C136.87649232 136.09627336 131.61918923 130.71492652 128 123 C127.62746094 122.23816406 127.25492188 121.47632813 126.87109375 120.69140625 C122.69147717 111.29883614 120.86381952 101.54258923 121.05078125 91.3125 C121.83726082 79.87101525 121.83726082 79.87101525 118.91552734 69.14697266 C115.60267883 65.89776478 111.25419495 64.60544143 107 63 C104.86772671 61.56164607 102.76396496 60.08030916 100.6875 58.5625 C93.65402871 53.80795087 85.91835389 51.15484338 77.9699707 48.30712891 C69.24911905 45.16814251 61.13054796 41.42643103 53 37 C51.88367188 36.41089844 50.76734375 35.82179688 49.6171875 35.21484375 C39.76527222 29.83172067 30.70001513 23.38326056 21.58544922 16.85205078 C18.9804284 14.98598016 16.3676501 13.13117031 13.75390625 11.27734375 C12.10624899 10.10229388 10.45909297 8.92654079 8.8125 7.75 C8.0400293 7.20126221 7.26755859 6.65252441 6.47167969 6.0871582 C5.7655957 5.57886475 5.05951172 5.07057129 4.33203125 4.546875 C3.71046143 4.10182617 3.0888916 3.65677734 2.44848633 3.19824219 C1 2 1 2 0 0 Z " fill="#010101" transform="translate(543,609)"/>
<path d="M0 0 C0.21914063 0.88300781 0.43828125 1.76601563 0.6640625 2.67578125 C4.05856981 15.52247353 9.18433567 27.91461075 20.53515625 35.75 C30.1751098 41.2981747 40.81871473 44.91656925 51.95703125 45.31640625 C53.62475586 45.37924805 53.62475586 45.37924805 55.32617188 45.44335938 C57.0519043 45.50233398 57.0519043 45.50233398 58.8125 45.5625 C60.56723633 45.62727539 60.56723633 45.62727539 62.35742188 45.69335938 C65.23817031 45.79918279 68.11900123 45.90126825 71 46 C62.97152387 52.17196947 53.20086018 53.23731794 43.26513672 52.34912109 C27.50425493 49.9199272 14.66069766 41.46471676 4 30 C3.86722656 30.99 3.73445313 31.98 3.59765625 33 C3.51193359 33.63591064 3.42621094 34.27182129 3.33789062 34.92700195 C3.15342865 36.31553619 2.97378385 37.7047184 2.79882812 39.09448242 C2.44182988 41.90187695 2.07748993 44.66812934 1.43359375 47.42578125 C0.45080816 51.70222665 1.31317508 54.18991513 3.375 57.875 C5.80475798 61.61352691 8.55649539 64.65074903 11.6875 67.8125 C16.86549163 73.39813921 17.91276627 78.61157221 19 86 C19.46331797 88.91937943 19.94581299 91.83527177 20.4375 94.75 C20.55915527 95.47807861 20.68081055 96.20615723 20.80615234 96.95629883 C22.14211718 104.52186942 24.85799648 110.57989454 29 117 C28.29875 116.71125 27.5975 116.4225 26.875 116.125 C23.94547497 114.97866412 20.99078347 113.97374346 18 113 C13.84474908 119.60553868 13.84474908 119.60553868 10.625 126.6875 C6.7688158 134.54818317 -1.28601464 138.53474478 -8.50708008 142.95410156 C-27.78110964 154.79661886 -43.79851794 165.2635628 -50.265625 187.8984375 C-52.38569381 196.85234515 -50.50191727 202.0949769 -46 210 C-37.23885837 209.47081397 -28.48171412 208.90154 -19.7265625 208.28125 C-17.89193059 208.15229378 -16.05729512 208.02338832 -14.22265625 207.89453125 C-11.44206663 207.69913847 -8.66158184 207.5026367 -5.88134766 207.30224609 C18.87445659 205.52230156 43.5733561 204.84431834 68.390625 204.8671875 C71.03928686 204.86651072 73.68794737 204.8655381 76.33660889 204.86428833 C81.84599317 204.86248937 87.35536389 204.86481104 92.86474609 204.86962891 C99.14151423 204.87505612 105.41824977 204.8733107 111.6950171 204.8678025 C117.17792093 204.86319218 122.66081523 204.86265893 128.14372039 204.86524117 C131.37705189 204.86676276 134.61036565 204.86669522 137.84369659 204.86370468 C161.5003924 204.84661976 185.16033412 205.28228816 208.765625 206.9375 C210.65918732 207.06499634 210.65918732 207.06499634 212.59100342 207.19506836 C215.18111976 207.37070774 217.77107088 207.54880299 220.36083984 207.72949219 C223.67762336 207.96018874 226.99471435 208.18436073 230.31216812 208.40507507 C233.52611455 208.61993398 236.73960019 208.84143757 239.953125 209.0625 C241.73230316 209.18129517 241.73230316 209.18129517 243.54742432 209.30249023 C244.63166687 209.37927002 245.71590942 209.4560498 246.83300781 209.53515625 C247.78620911 209.600979 248.7394104 209.66680176 249.72149658 209.73461914 C252 210 252 210 254 211 C254.268125 210.13375 254.53625 209.2675 254.8125 208.375 C256 205 256 205 257.625 202.125 C260.69261208 195.15315436 258.6483426 188.71258251 256.25 181.875 C255.99734375 181.10285156 255.7446875 180.33070313 255.484375 179.53515625 C250.57289996 165.119977 239.43451358 157.60958348 227.30615234 149.53564453 C223.18988563 146.79466236 219.09344673 144.02489808 215 141.25 C214.22358154 140.73155518 213.44716309 140.21311035 212.6472168 139.67895508 C197.79364576 129.62283054 197.79364576 129.62283054 195.75 122.9375 C194.31240083 118.73380599 192.63075534 115.57031082 190 112 C185.05 114.475 185.05 114.475 180 117 C182 113 182 113 182.99780273 111.06469727 C186.01698751 104.83213705 187.11337153 98.76015889 188.0625 91.9375 C190.71855927 73.27549407 190.71855927 73.27549407 196.25 68.6875 C200.97668372 64.25370907 206.41363191 58.48210126 207.28515625 51.8203125 C207.0339956 49.48495913 206.52711783 47.28988201 206 45 C205.62812356 42.31332743 205.27433328 39.62839221 204.9375 36.9375 C204.76073084 35.61306453 204.58247172 34.28882659 204.40234375 32.96484375 C204.26957031 31.98644531 204.13679688 31.00804687 204 30 C203.45472656 30.58007812 202.90945313 31.16015625 202.34765625 31.7578125 C190.00333904 44.54525905 175.12740239 51.68850188 157.25 52.4375 C149.77308658 52.36419693 143.71913602 50.12517955 137 47 C137 46.67 137 46.34 137 46 C137.62342285 45.98541748 138.2468457 45.97083496 138.88916016 45.95581055 C160.32573639 45.39688747 180.52577832 44.26895802 196.1875 27.875 C202.5724369 19.96477262 205.76755416 9.77184625 208 0 C210.99220268 1.36370299 213.29026529 2.94908083 215.75 5.125 C216.36359375 5.66382813 216.9771875 6.20265625 217.609375 6.7578125 C218.06828125 7.16773438 218.5271875 7.57765625 219 8 C218.66226562 8.6290625 218.32453125 9.258125 217.9765625 9.90625 C210.20925059 24.81230522 210.79422625 38.88479608 215.625 54.9375 C219.246276 65.06908469 225.14299147 74.00929608 231.3125 82.75 C231.94309326 83.64501221 231.94309326 83.64501221 232.58642578 84.55810547 C234.57704168 87.30590779 236.14374428 89.09582952 239 91 C239.29003048 93.52984895 239.39300804 95.82806821 239.37109375 98.359375 C239.38851504 99.88411638 239.40609885 101.40885592 239.42382812 102.93359375 C239.4337838 105.32247036 239.43752821 107.71120144 239.43579102 110.10009766 C239.45750526 123.89009001 240.94823725 136.13176206 248.3125 148.1875 C248.70203857 148.85547607 249.09157715 149.52345215 249.49291992 150.21166992 C252.28155847 154.95172854 255.24930397 159.56998916 258.39453125 164.08203125 C263.05657984 172.55538964 264.99384776 181.76060733 266.75 191.1875 C266.97042969 192.33025391 267.19085937 193.47300781 267.41796875 194.65039062 C267.95337233 197.4321614 268.48055783 200.21521279 269 203 C267.80358887 203.67579102 267.80358887 203.67579102 266.58300781 204.36523438 C263.66409812 206.2125897 262.99285232 207.34020595 261.75 210.5 C261.43546875 211.2734375 261.1209375 212.046875 260.796875 212.84375 C260.16592864 214.55101663 259.57557386 216.27327843 259 218 C250.1628964 218.20934991 241.47583514 217.62742195 232.68658447 216.83197021 C211.15450185 214.90407192 189.59966173 213.81825203 168 213 C167.20756897 212.96970703 166.41513794 212.93941406 165.59869385 212.90820312 C99.8041881 210.43116874 33.49566126 211.2444522 -32.08422852 217.390625 C-38.40495698 217.96152208 -44.65486363 218.096231 -51 218 C-51.84635417 215.265625 -52.69270833 212.53125 -53.5390625 209.796875 C-55.38405632 206.2647478 -57.59099615 204.96134468 -61 203 C-60.26569333 198.89286868 -59.50964263 194.79001443 -58.75 190.6875 C-58.54503906 189.53958984 -58.34007812 188.39167969 -58.12890625 187.20898438 C-55.97658898 175.69734807 -52.67805023 166.33561544 -46.125 156.625 C-38.18099308 144.44410912 -31.67492979 132.61450162 -31.76171875 117.73828125 C-31.74631603 116.19204835 -31.73001368 114.64582419 -31.71289062 113.09960938 C-31.6963899 110.69665996 -31.68755305 108.2943594 -31.69458008 105.89135742 C-31.69720109 103.54793827 -31.6691066 101.20644266 -31.63671875 98.86328125 C-31.64692551 98.14860184 -31.65713226 97.43392242 -31.66764832 96.69758606 C-31.59049165 92.75116541 -31.13938217 91.16440483 -28.55078125 88.11108398 C-27.70902344 87.41442627 -26.86726563 86.71776855 -26 86 C-12.32323201 70.51686643 -3.20343542 49.93567659 -3.8125 29.11328125 C-4.38688606 22.63947175 -5.9933908 17.37381024 -9.390625 11.82421875 C-10 10 -10 10 -9.33203125 7.97265625 C-7.89331202 5.84200168 -6.41626523 4.38588942 -4.4375 2.75 C-3.81746094 2.22921875 -3.19742188 1.7084375 -2.55859375 1.171875 C-1 0 -1 0 0 0 Z " fill="#F8F8F8" transform="translate(408,373)"/>
<path d="M0 0 C-0.86625 0.94875 -1.7325 1.8975 -2.625 2.875 C-13.89451955 17.99848261 -17.11193174 43.47172543 -17.203125 61.796875 C-17.21018463 62.73493484 -17.21724426 63.67299469 -17.22451782 64.63948059 C-17.55682094 121.89566146 -10.06023223 192.4103663 31.625 236 C35.16111419 239.42425117 38.58658656 241.84024449 43 244 C39.6835981 246.2109346 37.34947636 246.71655544 33.4609375 247.5078125 C32.82064606 247.63815887 32.18035461 247.76850525 31.5206604 247.90280151 C30.16467995 248.17670013 28.80799639 248.44713753 27.45068359 248.71435547 C25.40085282 249.11988539 23.35482436 249.54157085 21.30859375 249.96484375 C8.61549562 252.53604529 0.26680791 253.14300894 -11 246 C-21.47024085 238.06799936 -29.02116213 227.9444157 -34.9375 216.3125 C-35.44692139 215.31992187 -35.95634277 214.32734375 -36.48120117 213.3046875 C-57 172.50504488 -57 172.50504488 -57 156 C-57.886875 156.12375 -58.77375 156.2475 -59.6875 156.375 C-63 156 -63 156 -65.6875 153.5 C-70.61006977 146.72925582 -71.50418033 139.94143877 -71.4375 131.8125 C-71.4674707 130.49862305 -71.4674707 130.49862305 -71.49804688 129.15820312 C-71.49490018 125.00770942 -71.34610789 122.59408849 -69.22265625 118.94921875 C-66.9610073 116.96580429 -65.85182212 116.57949265 -63 116 C-63.06928711 115.32227539 -63.13857422 114.64455078 -63.20996094 113.94628906 C-66.16532228 82.3838713 -67.99164694 39.19975815 -47.34765625 12.89453125 C-40.37873051 5.23029319 -30.56366692 4.07722679 -20.79882812 2.15527344 C-18.73841274 1.74770795 -16.68183002 1.32368515 -14.625 0.8984375 C-13.30749031 0.63442346 -11.98978807 0.37136802 -10.671875 0.109375 C-9.4869043 -0.12813477 -8.30193359 -0.36564453 -7.08105469 -0.61035156 C-4.27230372 -0.96556286 -2.62688757 -0.94477203 0 0 Z " fill="#020202" transform="translate(104,511)"/>
<path d="M0 0 C8.94341427 1.44703365 17.85673111 3.02100874 26.75 4.75 C28.64298828 5.0903125 28.64298828 5.0903125 30.57421875 5.4375 C39.2827065 7.15543882 45.01417162 9.49463391 50.91796875 16.16796875 C65.21820451 38.91634378 67.28226823 64.08197466 67.25 90.3125 C67.24931519 91.11527374 67.24863037 91.91804749 67.2479248 92.74514771 C67.22409439 101.21393588 67.04674864 109.58380325 66 118 C67.1446875 118.37125 67.1446875 118.37125 68.3125 118.75 C71.42621367 120.19823892 72.32008547 121.02747113 74 124 C74.29757363 126.64315402 74.42791199 128.98985988 74.375 131.625 C74.36194824 132.69306885 74.36194824 132.69306885 74.34863281 133.78271484 C74.08837863 143.19666344 71.78081331 151.21918669 65 158 C63.01178687 158.39764263 61.01055661 158.73775349 59 159 C58.84031738 159.62640381 58.68063477 160.25280762 58.51611328 160.89819336 C50.56326337 191.6631654 39.00387369 231.35116093 10.8125 250 C2.07613759 254.95469051 -6.44681357 254.52982754 -16 252.6875 C-16.7211499 252.55432373 -17.4422998 252.42114746 -18.18530273 252.28393555 C-20.45817335 251.86263137 -22.72904646 251.43150531 -25 251 C-26.55326333 250.7102822 -28.10664793 250.42121375 -29.66015625 250.1328125 C-33.44154593 249.42936523 -37.22117884 248.71711142 -41 248 C-41 247.34 -41 246.68 -41 246 C-39.12890625 244.80859375 -39.12890625 244.80859375 -36.5625 243.4375 C-11.14146429 228.6085625 0.78168482 192.92064719 8.17089844 166.15527344 C10.79160224 156.18178227 12.93678116 146.10117558 15 136 C15.17015625 135.18305664 15.3403125 134.36611328 15.515625 133.52441406 C16.50690191 128.70262101 17.33418623 123.8774471 18 119 C18.10296387 118.24654297 18.20592773 117.49308594 18.31201172 116.71679688 C22.6334626 82.88249897 26.00232703 36.71474304 6 7 C4.42259857 5.14771628 2.82690307 3.61811415 1 2 C0.505 1.01 0.505 1.01 0 0 Z " fill="#020202" transform="translate(917,509)"/>
<path d="M0 0 C0.99 9.9 0.99 9.9 2 20 C-0.83078125 20.36351562 -3.6615625 20.72703125 -6.578125 21.1015625 C-38.59904659 25.24746053 -70.5356126 29.62349424 -102 37 C-102.04898438 37.97582031 -102.09796875 38.95164062 -102.1484375 39.95703125 C-102.22320312 41.22933594 -102.29796875 42.50164063 -102.375 43.8125 C-102.44460937 45.07707031 -102.51421875 46.34164062 -102.5859375 47.64453125 C-103 51 -103 51 -105 54 C-107.43359375 54.41796875 -107.43359375 54.41796875 -110 54 C-116.03520063 48.50441731 -118.07515962 39.6203937 -120 32 C-120.19335938 31.24074219 -120.38671875 30.48148438 -120.5859375 29.69921875 C-121.20618785 25.65588861 -121.26532479 21.64787355 -121.3125 17.5625 C-121.34150391 16.72912109 -121.37050781 15.89574219 -121.40039062 15.03710938 C-121.45867819 9.36528053 -120.624114 6.39611462 -117 2 C-114.70703125 2.12109375 -114.70703125 2.12109375 -112 3 C-110.19921875 5.72265625 -110.19921875 5.72265625 -108.6875 9.0625 C-108.17574219 10.16722656 -107.66398438 11.27195312 -107.13671875 12.41015625 C-106.76160156 13.26480469 -106.38648438 14.11945312 -106 15 C-99.75875601 14.36412618 -93.62914454 13.47709555 -87.45703125 12.36328125 C-85.58059788 12.03191239 -83.70404619 11.70121302 -81.82739258 11.37109375 C-80.84703033 11.19819824 -79.86666809 11.02530273 -78.8565979 10.84716797 C-60.72336522 7.66223141 -42.57316363 4.84976007 -24.3125 2.5 C-23.31183502 2.37058014 -22.31117004 2.24116028 -21.28018188 2.1078186 C-18.45427408 1.74435376 -15.62778285 1.38609913 -12.80078125 1.03125 C-11.9643811 0.92540085 -11.12798096 0.8195517 -10.26623535 0.710495 C-6.80662323 0.28581951 -3.4914628 0 0 0 Z " fill="#030303" transform="translate(287,595)"/>
<path d="M0 0 C25.11617861 2.54239421 50.0003312 5.96782318 74.875 10.25 C75.53353092 10.36326378 76.19206184 10.47652756 76.87054825 10.59322357 C99.91197379 14.56031169 99.91197379 14.56031169 107 16 C107.0928125 14.7625 107.0928125 14.7625 107.1875 13.5 C108.23296217 8.99647063 110.40457215 5.77342647 113 2 C115.3125 2.125 115.3125 2.125 118 3 C123.8779828 12.36847139 121.32332504 25.12865661 119.0546875 35.40234375 C117.16049817 41.86363402 114.4537683 49.66013133 109 54 C106.4375 54 106.4375 54 104 53 C101.41623921 47.89593921 101.40484644 42.60037581 101 37 C91.2399994 34.36504909 81.38680409 32.48586689 71.4375 30.75 C70.60259033 30.6030368 69.76768066 30.45607361 68.9074707 30.30465698 C45.3737593 26.18493202 21.68249689 23.12161117 -2 20 C-1.34 13.4 -0.68 6.8 0 0 Z " fill="#030303" transform="translate(737,595)"/>
<path d="M0 0 C0.33 0 0.66 0 1 0 C8.48756365 57.80399136 -1.74632965 133.73805981 -36.96875 181.6796875 C-40.89972496 186.77483582 -44.95566686 191.00656959 -50 195 C-50 189.99226503 -48.93055986 187.62579853 -45.625 183.875 C-11.28461632 143.08427591 -6.09877803 75.92578843 -5.29003906 25.0090332 C-5.2763327 24.19754318 -5.26262634 23.38605316 -5.24850464 22.54997253 C-5.2243016 21.03295731 -5.20422589 19.51586779 -5.1892395 17.99873352 C-4.9925117 4.9925117 -4.9925117 4.9925117 0 0 Z " fill="#F4F5F5" transform="translate(936,554)"/>
<path d="M0 0 C0.66 0 1.32 0 2 0 C2.98943593 2.55604281 3.26155781 4.3390318 2.24169922 6.91625977 C1.89123535 7.62580811 1.54077148 8.33535645 1.1796875 9.06640625 C-1.06980853 13.94015017 -2.42134864 18.78153783 -3.625 24 C-3.82867187 24.81855469 -4.03234375 25.63710938 -4.2421875 26.48046875 C-7.6436963 40.89327207 -8.38318612 55.43942715 -8.3125 70.1875 C-8.31034485 71.00637695 -8.3081897 71.82525391 -8.30596924 72.66894531 C-8.12863809 115.09721738 -0.04749117 156.70002163 16 196 C16.27682617 196.680625 16.55365234 197.36125 16.83886719 198.0625 C18.19656989 201.38776435 19.57937044 204.70113424 21 208 C20.34 208 19.68 208 19 208 C19 209.32 19 210.64 19 212 C18.34 212 17.68 212 17 212 C-4.83668377 170.04299831 -15.37850008 123.232455 -15.37060547 76.04638672 C-15.37498767 73.13319727 -15.41152841 70.22151892 -15.44921875 67.30859375 C-15.58105883 45.13360545 -12.6024376 18.9036564 0 0 Z " fill="#F5F5F5" transform="translate(101,513)"/>
<path d="M0 0 C0.66 0 1.32 0 2 0 C11.4807753 14.84458862 16.11245964 29.86063302 16.203125 47.54296875 C16.21378242 48.9123912 16.21378242 48.9123912 16.22465515 50.30947876 C16.51684293 99.0375288 12.25819898 160.24958437 -18 201 C-18.64839844 201.87914062 -19.29679688 202.75828125 -19.96484375 203.6640625 C-23.88966558 208.77160416 -27.95149964 213.00327055 -33 217 C-33.66 216.67 -34.32 216.34 -35 216 C-34.39865234 215.4121875 -34.39865234 215.4121875 -33.78515625 214.8125 C4.5523512 174.47553071 10.56837233 96.44681333 9.25872803 43.80177307 C8.80863014 29.30667634 7.01256167 16.27954267 1 3 C0.505 1.515 0.505 1.515 0 0 Z " fill="#F5F5F5" transform="translate(882,518)"/>
<path d="M0 0 C0 3.15093206 -0.54482497 4.48753129 -1.8125 7.3125 C-6.73812498 19.24229383 -8.12923693 32.17217409 -8.23828125 44.97265625 C-8.24798447 45.92101349 -8.25768768 46.86937073 -8.26768494 47.84646606 C-8.29260871 50.9185207 -8.30521926 53.99035429 -8.3125 57.0625 C-8.31511841 58.11200836 -8.31773682 59.16151672 -8.32043457 60.24282837 C-8.32521878 78.16907677 -7.13509024 95.33274718 -4 113 C-3.75975098 114.41273193 -3.75975098 114.41273193 -3.51464844 115.85400391 C2.28218708 149.44734265 11.52796709 190.82876615 36 216 C31.2127314 216 28.93911258 212.76817174 25.5546875 209.609375 C3.38670234 186.96684582 -4.44906642 149.99571 -10.3125 120.0625 C-10.55500488 118.83225098 -10.79750977 117.60200195 -11.04736328 116.33447266 C-14.20792953 99.52651436 -15.35174039 83.10339204 -15.31567383 66.01318359 C-15.31249668 62.87172221 -15.33614061 59.7311909 -15.36132812 56.58984375 C-15.4241672 36.71930687 -13.52781688 17.33373593 -1 1 C-0.67 0.67 -0.34 0.34 0 0 Z " fill="#F4F5F5" transform="translate(141,518)"/>
<path d="M0 0 C4.08886587 0.04915576 8.17428845 0.11029896 12.26171875 0.23046875 C13.14150391 0.25512207 14.02128906 0.27977539 14.92773438 0.30517578 C17.7272786 0.39100624 20.52555658 0.49469601 23.32421875 0.60546875 C24.66190308 0.65151245 24.66190308 0.65151245 26.02661133 0.69848633 C30.7810205 0.91555596 34.79171089 1.42484981 39.26171875 3.23046875 C39.22691406 3.92914062 39.19210937 4.6278125 39.15625 5.34765625 C39.11564453 6.71277344 39.11564453 6.71277344 39.07421875 8.10546875 C39.03941406 9.01039063 39.00460937 9.9153125 38.96875 10.84765625 C39.06542969 11.63398437 39.16210938 12.4203125 39.26171875 13.23046875 C42.57542875 15.43960875 43.60632085 15.45528428 47.44921875 15.35546875 C48.80080078 15.32839844 48.80080078 15.32839844 50.1796875 15.30078125 C51.21029297 15.26597656 51.21029297 15.26597656 52.26171875 15.23046875 C52.92171875 13.58046875 53.58171875 11.93046875 54.26171875 10.23046875 C54.75671875 11.22046875 54.75671875 11.22046875 55.26171875 12.23046875 C54.74609375 13.01421875 54.23046875 13.79796875 53.69921875 14.60546875 C51.99711323 17.07189855 51.99711323 17.07189855 52.63671875 19.48046875 C54.26916251 21.54253257 54.26916251 21.54253257 57.57421875 22.16796875 C61.71890086 22.2382176 63.08358228 21.80733616 66.26171875 19.23046875 C68.53709567 16.65863561 68.53709567 16.65863561 70.26171875 14.23046875 C71.25171875 17.69546875 71.25171875 17.69546875 72.26171875 21.23046875 C75.63572453 21.64772553 75.63572453 21.64772553 79.26171875 21.23046875 C82.00337273 18.01611581 83.04917975 14.24117469 84.26171875 10.23046875 C84.59171875 10.23046875 84.92171875 10.23046875 85.26171875 10.23046875 C85.26171875 13.53046875 85.26171875 16.83046875 85.26171875 20.23046875 C85.92171875 20.56046875 86.58171875 20.89046875 87.26171875 21.23046875 C86.76671875 23.70546875 86.76671875 23.70546875 86.26171875 26.23046875 C80.25455594 28.88504246 74.19991483 28.56157625 67.76171875 28.54296875 C66.64667969 28.55908203 65.53164063 28.57519531 64.3828125 28.59179688 C58.51040913 28.59529652 54.3620143 28.42102957 49.26171875 25.23046875 C47.24490448 24.44918034 45.22404279 23.67825752 43.19921875 22.91796875 C37.98105182 20.76855011 35.22363444 19.03081487 32.26171875 14.23046875 C31.76671875 12.25046875 31.76671875 12.25046875 31.26171875 10.23046875 C18.39171875 9.24046875 5.52171875 8.25046875 -7.73828125 7.23046875 C-3.58082933 0.30138221 -3.58082933 0.30138221 0 0 Z " fill="#F5F5F5" transform="translate(629.73828125,605.76953125)"/>
<path d="M0 0 C4.05703101 1.76844942 5.8088984 4.60477514 7.52734375 8.58984375 C11.86814834 25.15196942 8.08096299 44.75128631 0.07421875 59.5546875 C-2.28107776 63.1635189 -4.72922821 66.01636168 -8.5625 68.0625 C-11.86195964 68.63356032 -13.4882065 68.75311725 -16.3125 66.9375 C-19.6651089 61.90858665 -19.7520381 57.01353324 -19.1875 51.1875 C-19.13078125 50.49914062 -19.0740625 49.81078125 -19.015625 49.1015625 C-18.87557172 47.42092311 -18.72057755 45.74153995 -18.5625 44.0625 C-17.5725 44.0625 -16.5825 44.0625 -15.5625 44.0625 C-14.9025 48.6825 -14.2425 53.3025 -13.5625 58.0625 C-11.9125 58.3925 -10.2625 58.7225 -8.5625 59.0625 C1.39943551 48.03321425 2.74314249 32.64637742 2.8359375 18.40234375 C2.39708242 14.72370561 1.27412632 12.25473147 -0.5625 9.0625 C-2.98696391 9.08696895 -2.98696391 9.08696895 -5.5625 10.0625 C-7.26113316 12.80560972 -7.26113316 12.80560972 -8.375 16.125 C-8.79394531 17.22972656 -9.21289062 18.33445312 -9.64453125 19.47265625 C-10.09892578 20.75462891 -10.09892578 20.75462891 -10.5625 22.0625 C-20.03242897 21.4693511 -29.25072938 19.79822278 -38.5625 18.0625 C-34.23857513 13.17325634 -34.23857513 13.17325634 -31.2734375 12.6875 C-30.11714844 12.873125 -30.11714844 12.873125 -28.9375 13.0625 C-28.0815625 13.19527344 -27.225625 13.32804688 -26.34375 13.46484375 C-21.68994397 14.46488915 -17.11816277 15.68540802 -12.5625 17.0625 C-12.43875 15.7940625 -12.43875 15.7940625 -12.3125 14.5 C-11.14541062 9.15084032 -8.93566408 5.47087342 -5.125 1.5625 C-2.5625 0.0625 -2.5625 0.0625 0 0 Z " fill="#F5F5F5" transform="translate(854.5625,588.9375)"/>
<path d="M0 0 C0.56847656 0.33773438 1.13695312 0.67546875 1.72265625 1.0234375 C12.4231687 7.2043679 22.76409528 8.85702052 34.875 5.6875 C39.0580992 4.4013348 43.03592852 2.84990002 47 1 C44.54722255 7.02045374 39.92656261 10.41833314 34.26074219 13.16210938 C30.41873312 14.58605917 26.74577388 14.59207468 22.6875 14.5 C21.85661865 14.49226563 21.0257373 14.48453125 20.16967773 14.4765625 C14.34971802 14.31324296 9.45724713 13.33818166 4.12890625 10.875 C1.16021225 9.65483953 -1.16021225 9.65483953 -4.12890625 10.875 C-5.33353516 11.431875 -5.33353516 11.431875 -6.5625 12 C-11.99051562 14.04830778 -16.95086669 14.44659975 -22.6875 14.5 C-23.88064819 14.52707031 -23.88064819 14.52707031 -25.09790039 14.5546875 C-31.99831872 14.48590543 -37.22088614 12.5725581 -42.3125 7.859375 C-42.869375 7.16328125 -43.42625 6.4671875 -44 5.75 C-44.5775 5.04359375 -45.155 4.3371875 -45.75 3.609375 C-46.1625 3.07828125 -46.575 2.5471875 -47 2 C-43.75467163 2 -42.02627851 2.68513645 -39.0625 3.9375 C-28.13086925 8.53768851 -17.16613522 7.93614501 -6 4 C-3.74260065 2.82057225 -1.99178829 1.60449612 0 0 Z " fill="#F5F5F5" transform="translate(512,468)"/>
<path d="M0 0 C-11.86233048 9.14026968 -25.22624376 16.34431544 -40 19 C-41.75800029 19.33364745 -43.51579919 19.66835712 -45.2734375 20.00390625 C-48.01506325 20.52666579 -50.75600414 21.04182811 -53.50585938 21.51953125 C-59.20968121 22.53354402 -64.55718823 24.01517809 -70 26 C-70 25.34 -70 24.68 -70 24 C-63.39409966 18.0300257 -56.05135353 15.31449203 -47.625 12.9375 C-39.7208931 10.57215532 -32.48101185 8.13181176 -25.2265625 4.18359375 C-17.44764808 0.04848661 -8.60456677 -0.15365298 0 0 Z " fill="#F7F7F7" transform="translate(607,303)"/>
<path d="M0 0 C12.35371975 -0.6389855 22.58897325 2.49139306 33.45751953 7.95288086 C38.49805918 10.43788625 43.44580784 12.13861867 48.875 13.5625 C56.07445298 15.47407038 62.15081141 18.24154125 68 23 C68.495 23.99 68.495 23.99 69 25 C67.93265625 24.75765625 66.8653125 24.5153125 65.765625 24.265625 C64.26050497 23.92669097 62.7552885 23.58818504 61.25 23.25 C60.04609619 22.97820923 60.04609619 22.97820923 58.81787109 22.70092773 C54.48125588 21.73337437 50.14357837 20.82326357 45.7734375 20.01953125 C29.90149541 17.09500256 11.79704101 11.79704101 0 0 Z " fill="#F5F5F5" transform="translate(417,303)"/>
<path d="M0 0 C1.32 0 2.64 0 4 0 C4.21914062 1.03898438 4.43828125 2.07796875 4.6640625 3.1484375 C7.21364435 15.58381081 7.21364435 15.58381081 14 26 C16.62888222 26.33429648 16.62888222 26.33429648 19 26 C20.4807848 23.0384304 20.35314037 20.16493705 20.5625 16.875 C20.64628906 15.59367188 20.73007813 14.31234375 20.81640625 12.9921875 C20.90728516 11.51105469 20.90728516 11.51105469 21 10 C29.45200904 6.77286928 38.1078559 5.43948601 47 4 C46.25830078 5.92089844 46.25830078 5.92089844 45 8 C43.12060547 8.82128906 43.12060547 8.82128906 40.8671875 9.265625 C40.06152344 9.43320312 39.25585938 9.60078125 38.42578125 9.7734375 C37.58402344 9.93070313 36.74226563 10.08796875 35.875 10.25 C35.02550781 10.42273438 34.17601562 10.59546875 33.30078125 10.7734375 C31.20355786 11.19759504 29.10211863 11.6008098 27 12 C26.96261719 12.85722656 26.92523438 13.71445312 26.88671875 14.59765625 C26.45759328 22.06107367 25.93352857 27.66955306 21.6875 33.9375 C18.99596097 35.63217273 17.10720029 35.43500804 14 35 C5.65511993 29.5335754 1.64713128 17.75822957 -0.64453125 8.35546875 C-1.09403086 5.37691641 -0.85719107 2.88327904 0 0 Z " fill="#F6F7F6" transform="translate(163,622)"/>
<path d="M0 0 C1.8515625 0.1640625 1.8515625 0.1640625 4 1 C5.2734375 3.3359375 5.2734375 3.3359375 6.375 6.375 C12.04921048 20.97571234 19.85937435 35.4059603 34 43 C34.99 43.66 35.98 44.32 37 45 C29.76878839 45.7298793 24.89935543 45.30669787 19.05078125 40.80859375 C9.84601171 32.69086366 1.04269836 19.38074491 -1 7 C-0.93496605 4.50548351 -0.57274057 2.44716427 0 0 Z " fill="#F4F4F4" transform="translate(466,262)"/>
<path d="M0 0 C0 3.15093206 -0.54482497 4.48753129 -1.8125 7.3125 C-7.56980707 21.25661606 -8.14954054 36.1435728 -8.5625 51 C-8.60577365 52.45704157 -8.6493905 53.91407299 -8.69335938 55.37109375 C-8.79953302 58.91395412 -8.90105111 62.45692963 -9 66 C-9.33 66 -9.66 66 -10 66 C-10 61.71 -10 57.42 -10 53 C-11.98 53.495 -11.98 53.495 -14 54 C-18.66064819 44.67870361 -13.84805103 29.02254928 -10.8984375 19.41015625 C-8.39454711 12.48811087 -5.29660581 5.29660581 0 0 Z " fill="#F2F2F2" transform="translate(141,518)"/>
<path d="M0 0 C0.99 0 1.98 0 3 0 C3 14.19 3 28.38 3 43 C1.68 43.66 0.36 44.32 -1 45 C-1.66 44.67 -2.32 44.34 -3 44 C-3 30.8 -3 17.6 -3 4 C-2.34 3.67 -1.68 3.34 -1 3 C-0.67 2.01 -0.34 1.02 0 0 Z " fill="#FAFAFA" transform="translate(89,565)"/>
<path d="M0 0 C0.66 0.33 1.32 0.66 2 1 C-2.45203692 7.12155077 -7.52928095 10.46233744 -15 12 C-21.99925298 12.83065065 -27.83008151 11.36443291 -34 8 C-35.96589802 6.44403139 -37.38526619 4.93768057 -39 3 C-38.16082031 3.2165625 -38.16082031 3.2165625 -37.3046875 3.4375 C-24.50035058 6.4018481 -11.92438522 5.96219261 0 0 Z " fill="#F2F3F2" transform="translate(501,438)"/>
<path d="M0 0 C0.639375 0.268125 1.27875 0.53625 1.9375 0.8125 C15.88990736 6.22261714 27.24361402 6.88431977 42 4 C37.32379884 9.24301342 32.9912811 11.66763543 26.09765625 12.43359375 C24.75280912 12.45710966 23.40739716 12.45795532 22.0625 12.4375 C21.00699951 12.42505249 21.00699951 12.42505249 19.93017578 12.41235352 C13.21581826 12.19362705 8.94451751 10.91902385 4.1953125 6.2109375 C0 1.51296083 0 1.51296083 0 0 Z " fill="#F8F8F8" transform="translate(520,437)"/>
<path d="M0 0 C0.33 0 0.66 0 1 0 C1.71425713 3.32246202 2.19685512 6.56245919 2.46484375 9.94921875 C2.54283203 10.88056641 2.62082031 11.81191406 2.70117188 12.77148438 C2.857126 14.69577786 3.01081985 16.62025604 3.16210938 18.54492188 C3.691856 24.81143683 4.62779897 30.8623516 6 37 C5.39414062 36.66355469 4.78828125 36.32710938 4.1640625 35.98046875 C1.36727147 34.71333058 -0.09896389 35.16022639 -3 36 C-3.99 36.495 -3.99 36.495 -5 37 C-4.55992652 33.77279447 -4.10115943 30.56135189 -3.5234375 27.35546875 C-2.30806294 20.58020906 -1.62537212 13.90470282 -1.24609375 7.03125 C-1.04417236 4.54409129 -0.70634919 2.38173941 0 0 Z " fill="#F0F1F1" transform="translate(512,373)"/>
<path d="M0 0 C0.66 0 1.32 0 2 0 C10.26615438 12.94278762 15.63055744 26.44982685 16 42 C13.37098712 40.47793991 11.15634036 39.15634036 9 37 C8.5769043 35.05151367 8.5769043 35.05151367 8.32421875 32.66796875 C8.22093262 31.79253418 8.11764648 30.91709961 8.01123047 30.01513672 C7.90439941 29.0820166 7.79756836 28.14889648 7.6875 27.1875 C6.57689639 18.41178831 4.65995262 11.08349249 1 3 C0.67 2.01 0.34 1.02 0 0 Z " fill="#F1F1F1" transform="translate(882,518)"/>
<path d="M0 0 C-2.21941255 3.32911883 -2.47447401 3.42084328 -6.1328125 4.16796875 C-7.34130859 4.42416992 -7.34130859 4.42416992 -8.57421875 4.68554688 C-9.41597656 4.85119141 -10.25773438 5.01683594 -11.125 5.1875 C-11.97449219 5.36474609 -12.82398438 5.54199219 -13.69921875 5.72460938 C-15.79722819 6.16071246 -17.89835009 6.5817929 -20 7 C-20.33 11.29 -20.66 15.58 -21 20 C-22.32 20 -23.64 20 -25 20 C-26.00109515 16.68929162 -26.10356134 13.69915231 -26.0625 10.25 C-26.05347656 9.26515625 -26.04445312 8.2803125 -26.03515625 7.265625 C-26.02355469 6.51796875 -26.01195312 5.7703125 -26 5 C-5.27272727 -2.63636364 -5.27272727 -2.63636364 0 0 Z " fill="#EBEBEB" transform="translate(210,627)"/>
<path d="M0 0 C1.08728049 3.26184146 0.91056684 4.43372335 0.2578125 7.7265625 C0.07895508 8.66878662 -0.09990234 9.61101074 -0.28417969 10.58178711 C-0.47915039 11.58604736 -0.67412109 12.59030762 -0.875 13.625 C-2.69610287 23.43932222 -3.73233511 33.02948268 -4 43 C-8.81540146 35.77689781 -7.85048585 25.35517296 -7 17 C-5.98371882 12.40315009 -4.10741025 8.19566222 -2 4 C-1.61585938 3.22527344 -1.23171875 2.45054687 -0.8359375 1.65234375 C-0.56007813 1.10707031 -0.28421875 0.56179688 0 0 Z " fill="#F4F4F3" transform="translate(673,459)"/>
<path d="M0 0 C8.47478647 10.73638638 9.43576845 22.79264292 8 36 C7.46876117 38.41209673 6.7883421 40.6539699 6 43 C5.67 43 5.34 43 5 43 C4.96132813 41.30810547 4.96132813 41.30810547 4.921875 39.58203125 C4.53433594 27.75001896 2.85967146 16.52954 0.35131836 4.96679688 C0 3 0 3 0 0 Z " fill="#F7F7F7" transform="translate(350,459)"/>
<path d="M0 0 C-0.33 0.66 -0.66 1.32 -1 2 C0.32 2.99 1.64 3.98 3 5 C1.77023437 5.26554687 0.54046875 5.53109375 -0.7265625 5.8046875 C-2.35941245 6.16128691 -3.99222287 6.51806733 -5.625 6.875 C-6.43324219 7.04902344 -7.24148438 7.22304688 -8.07421875 7.40234375 C-12.48562968 8.37070225 -16.74059564 9.4699227 -21 11 C-21 10.34 -21 9.68 -21 9 C-16.37590526 4.99373838 -6.44486964 -3.22243482 0 0 Z " fill="#EFEFEF" transform="translate(558,318)"/>
<path d="M0 0 C1.6415049 3.2830098 0.51888624 6.42545033 0 10 C-0.66 10 -1.32 10 -2 10 C-2.66 11.98 -3.32 13.96 -4 16 C-4.99 15.34 -5.98 14.68 -7 14 C-6.67 9.71 -6.34 5.42 -6 1 C-5.01 1.33 -4.02 1.66 -3 2 C-2.01 1.34 -1.02 0.68 0 0 Z " fill="#ECECEC" transform="translate(93,555)"/>
<path d="M0 0 C0.639375 0.268125 1.27875 0.53625 1.9375 0.8125 C7.49585648 2.96778108 13.09526442 5.04762329 19 6 C18.01 7.485 18.01 7.485 17 9 C16.01 8.67 15.02 8.34 14 8 C14 8.66 14 9.32 14 10 C11.23776197 10.5022251 9.54325877 10.35673215 7.1796875 8.8046875 C3.94601786 6.1122178 1.71813706 3.89331551 0 0 Z " fill="#F2F2F2" transform="translate(520,437)"/>
<path d="M0 0 C1.32963842 3.98891525 0.38405007 7.18462836 -0.4375 11.1875 C-0.65889648 12.31188477 -0.65889648 12.31188477 -0.88476562 13.45898438 C-1.24972791 15.30734174 -1.62397411 17.15386161 -2 19 C-3.65 19.33 -5.3 19.66 -7 20 C-5.69039355 12.73763698 -3.24043814 6.6169252 0 0 Z " fill="#EFEFEF" transform="translate(673,459)"/>
<path d="M0 0 C0 3.19824738 -0.62543147 4.78248119 -1.875 7.6875 C-3.2467563 10.97008876 -4.32757742 14.08261018 -5.0625 17.5625 C-5.371875 18.696875 -5.68125 19.83125 -6 21 C-6.99 21.33 -7.98 21.66 -9 22 C-10.19964804 18.49436185 -10.03005659 17.07797033 -8.671875 13.5546875 C-8.04564085 12.32071556 -7.40452023 11.09420434 -6.75 9.875 C-6.43675781 9.25496094 -6.12351563 8.63492188 -5.80078125 7.99609375 C-4.20120357 4.90977167 -2.67166028 2.25936703 0 0 Z " fill="#EBECEB" transform="translate(141,518)"/>
<path d="M0 0 C2.59583531 3.16081123 4.17645154 6.35773987 5.75 10.125 C6.42289062 11.70667969 6.42289062 11.70667969 7.109375 13.3203125 C8 16 8 16 7 18 C5.68 18 4.36 18 3 18 C2.49645133 15.56318413 1.99703244 13.12564561 1.5 10.6875 C1.35691406 9.99720703 1.21382813 9.30691406 1.06640625 8.59570312 C0.47374956 5.67475227 0 2.98891878 0 0 Z " fill="#F1F2F2" transform="translate(350,459)"/>
<path d="M0 0 C0.99 5.94 1.98 11.88 3 18 C2.34 18 1.68 18 1 18 C-0.19287411 14.12315913 -1 11.08378077 -1 7 C-2.65 7.33 -4.3 7.66 -6 8 C-5.67 6.35 -5.34 4.7 -5 3 C-4.34 3 -3.68 3 -3 3 C-3 2.34 -3 1.68 -3 1 C-1 0 -1 0 0 0 Z " fill="#ECEDED" transform="translate(96,633)"/>
<path d="M0 0 C0.33 0 0.66 0 1 0 C2.29235715 4.91502758 2.11135517 9.77290102 2.0625 14.8125 C2.05798828 15.69615234 2.05347656 16.57980469 2.04882812 17.49023438 C2.03709866 19.66018559 2.01916495 21.83010172 2 24 C1.67 24 1.34 24 1 24 C1 22.02 1 20.04 1 18 C0.34 18 -0.32 18 -1 18 C-1.02707139 15.75006641 -1.04642829 13.50003905 -1.0625 11.25 C-1.07410156 9.99703125 -1.08570313 8.7440625 -1.09765625 7.453125 C-1.02021027 4.71463499 -0.82780815 2.58119707 0 0 Z " fill="#E6E7E7" transform="translate(512,373)"/>
<path d="M0 0 C0.33 0 0.66 0 1 0 C1.33 3.96 1.66 7.92 2 12 C1.01 12 0.02 12 -1 12 C-1.66 12.66 -2.32 13.32 -3 14 C-3.66 14 -4.32 14 -5 14 C-4.67 10.7 -4.34 7.4 -4 4 C-3.01 4 -2.02 4 -1 4 C-0.67 2.68 -0.34 1.36 0 0 Z " fill="#EAEAEA" transform="translate(93,615)"/>
<path d="M0 0 C0.66 0.99 1.32 1.98 2 3 C3.32 2.67 4.64 2.34 6 2 C6.125 5.375 6.125 5.375 6 9 C5.34 9.66 4.68 10.32 4 11 C3.34 10.67 2.68 10.34 2 10 C1.01 10.33 0.02 10.66 -1 11 C-0.67 7.37 -0.34 3.74 0 0 Z " fill="#EDEDED" transform="translate(404,409)"/>
<path d="M0 0 C0.66 0 1.32 0 2 0 C1.125 7.625 1.125 7.625 0 11 C-0.66 11 -1.32 11 -2 11 C-2.12375 10.030625 -2.2475 9.06125 -2.375 8.0625 C-2.58125 7.051875 -2.7875 6.04125 -3 5 C-3.66 4.67 -4.32 4.34 -5 4 C-4.360625 3.71125 -3.72125 3.4225 -3.0625 3.125 C-0.84793921 2.17176549 -0.84793921 2.17176549 0 0 Z " fill="#FAFAF9" transform="translate(885,660)"/>
<path d="M0 0 C4.29 0 8.58 0 13 0 C9.12788877 2.90408342 6.59682146 3.85079464 2 5 C2 4.34 2 3.68 2 3 C1.34 2.67 0.68 2.34 0 2 C0 1.34 0 0.68 0 0 Z " fill="#F1F1F1" transform="translate(466,419)"/>
<path d="M0 0 C0.99 0 1.98 0 3 0 C3.35050464 5.841744 3.16727335 9.8531808 0 15 C-0.33 15 -0.66 15 -1 15 C-0.67 10.05 -0.34 5.1 0 0 Z " fill="#F1F1F0" transform="translate(836,633)"/>
<path d="M0 0 C-1.09445838 0.86657116 -2.20097781 1.71792724 -3.3125 2.5625 C-3.92738281 3.03816406 -4.54226563 3.51382812 -5.17578125 4.00390625 C-5.77777344 4.33261719 -6.37976563 4.66132813 -7 5 C-10 4 -10 4 -13 2 C-11.36286898 0.36286898 -9.2920301 0.32922278 -7.0625 -0.125 C-6.16660156 -0.31320312 -5.27070312 -0.50140625 -4.34765625 -0.6953125 C-2 -1 -2 -1 0 0 Z " fill="#EBEBEB" transform="translate(562,442)"/>
<path d="M0 0 C0.99 0 1.98 0 3 0 C2.67 1.98 2.34 3.96 2 6 C0.35 6.33 -1.3 6.66 -3 7 C-2.38722388 4.03824877 -1.74627478 2.61941217 0 0 Z " fill="#E6E7E6" transform="translate(669,472)"/>
<path d="M0 0 C0.99 0.66 1.98 1.32 3 2 C3 2.99 3 3.98 3 5 C1.02 5.99 1.02 5.99 -1 7 C-1.625 5.1875 -1.625 5.1875 -2 3 C-1.34 2.01 -0.68 1.02 0 0 Z " fill="#FAFAFA" transform="translate(90,551)"/>
<path d="M0 0 C0.66 0 1.32 0 2 0 C3.65 2.97 5.3 5.94 7 9 C6.01 9.33 5.02 9.66 4 10 C2.68 6.7 1.36 3.4 0 0 Z " fill="#D8D8D9" transform="translate(882,518)"/>
<path d="M0 0 C2.05078125 0.03255208 4.1015625 0.06510417 6.15234375 0.09765625 C3.53035601 2.25143189 1.50830203 3.49837799 -1.84765625 4.09765625 C-2.17765625 3.10765625 -2.50765625 2.11765625 -2.84765625 1.09765625 C-1.84765625 0.09765625 -1.84765625 0.09765625 0 0 Z " fill="#E8E8E8" transform="translate(600.84765625,302.90234375)"/>
<path d="M0 0 C0.66 0 1.32 0 2 0 C3.2890625 1.75 3.2890625 1.75 4.625 4 C5.07101562 4.7425 5.51703125 5.485 5.9765625 6.25 C6.31429688 6.8275 6.65203125 7.405 7 8 C4.08482708 6.92598892 2.22189824 6.22189824 0 4 C0 2.68 0 1.36 0 0 Z " fill="#EDEDEE" transform="translate(430,482)"/>
<path d="M0 0 C2.9719385 1.12451727 5.33440687 2.22293791 8 4 C6.02 4.99 6.02 4.99 4 6 C2.68 4.02 1.36 2.04 0 0 Z " fill="#E7E8E8" transform="translate(520,437)"/>
<path d="M0 0 C0.61875 0.804375 1.2375 1.60875 1.875 2.4375 C3.74164041 5.03874519 3.74164041 5.03874519 6 6 C5.67 6.99 5.34 7.98 5 9 C4.34 9 3.68 9 3 9 C0 3.375 0 3.375 0 0 Z " fill="#E7E8E7" transform="translate(339,616)"/>
<path d="M0 0 C0.66 0 1.32 0 2 0 C2.33 1.65 2.66 3.3 3 5 C1.35 5 -0.3 5 -2 5 C-1.125 1.125 -1.125 1.125 0 0 Z " fill="#E8E9E8" transform="translate(355,472)"/>
</svg>
